<svg width="50" height="41" viewBox="0 0 50 41" fill="none" xmlns="http://www.w3.org/2000/svg">
<path d="M25 0C18.3725 -1.1863e-06 12.0162 2.11973 7.32822 5.89326C2.64029 9.66679 0.00441835 14.7853 0 20.1236C0.00353499 25.4625 2.63902 30.5816 7.32704 34.3558C12.0151 38.1299 18.3719 40.25 25 40.25C29.3533 40.25 34.7 39.3693 38.5133 37.7073L47.8133 40.1828C48.107 40.2605 48.4218 40.2708 48.7223 40.2127C49.0229 40.1545 49.2975 40.0302 49.5153 39.8536C49.7332 39.677 49.8858 39.455 49.9561 39.2126C50.0264 38.9701 50.0116 38.7167 49.9133 38.4806L46.8267 31.0406C49.0667 27.8912 50 23.7752 50 20.1236C49.9956 14.7853 47.3597 9.66679 42.6718 5.89326C37.9838 2.11973 31.6275 -1.1863e-06 25 0Z" fill="#11573F"/>
<path d="M20.938 11.2822C20.192 11.2822 19.4766 11.5713 18.9491 12.086C18.4216 12.6006 18.1253 13.2987 18.1253 14.0265C18.1253 14.7543 18.4216 15.4524 18.9491 15.967C19.4766 16.4817 20.192 16.7708 20.938 16.7708C21.684 16.7708 22.3994 16.4817 22.9269 15.967C23.4544 15.4524 23.7508 14.7543 23.7508 14.0265C23.7508 13.2987 23.4544 12.6006 22.9269 12.086C22.3994 11.5713 21.684 11.2822 20.938 11.2822ZM16.8752 14.0265C16.8752 12.9752 17.3032 11.9669 18.0652 11.2235C18.8271 10.4801 19.8605 10.0625 20.938 10.0625C22.0156 10.0625 23.049 10.4801 23.8109 11.2235C24.5728 11.9669 25.0009 12.9752 25.0009 14.0265C25.0009 15.0778 24.5728 16.0861 23.8109 16.8295C23.049 17.5729 22.0156 17.9905 20.938 17.9905C19.8605 17.9905 18.8271 17.5729 18.0652 16.8295C17.3032 16.0861 16.8752 15.0778 16.8752 14.0265ZM16.8752 19.2102C16.2121 19.2102 15.5762 19.4672 15.1073 19.9247C14.6384 20.3822 14.375 21.0026 14.375 21.6496V21.7521C14.3768 21.8234 14.3818 21.8946 14.39 21.9655C14.4786 22.756 14.7663 23.5127 15.2276 24.1683C16.1039 25.4063 17.7965 26.5284 20.938 26.5284C22.1206 26.5284 23.097 26.3698 23.902 26.1052C23.8137 25.7027 23.7637 25.288 23.752 24.8611C23.0469 25.1318 22.1306 25.3087 20.938 25.3087C18.1416 25.3087 16.8652 24.3342 16.2564 23.4755C15.9154 22.9902 15.7017 22.4306 15.6339 21.846L15.6264 21.7447L15.6251 21.724V21.6496C15.6251 21.3261 15.7568 21.0159 15.9912 20.7872C16.2257 20.5584 16.5437 20.4299 16.8752 20.4299H25.0009C25.1017 20.4299 25.1996 20.4413 25.2946 20.4641C25.578 20.1226 25.8938 19.8115 26.2422 19.531C25.8641 19.3204 25.4362 19.2099 25.0009 19.2102H16.8752ZM30.6263 13.1117C30.129 13.1117 29.652 13.3045 29.3004 13.6476C28.9487 13.9907 28.7512 14.4561 28.7512 14.9413C28.7512 15.4265 28.9487 15.8919 29.3004 16.235C29.652 16.5781 30.129 16.7708 30.6263 16.7708C31.1236 16.7708 31.6006 16.5781 31.9522 16.235C32.3039 15.8919 32.5015 15.4265 32.5015 14.9413C32.5015 14.4561 32.3039 13.9907 31.9522 13.6476C31.6006 13.3045 31.1236 13.1117 30.6263 13.1117ZM27.5011 14.9413C27.5011 14.1326 27.8303 13.357 28.4164 12.7851C29.0025 12.2133 29.7974 11.892 30.6263 11.892C31.4552 11.892 32.2501 12.2133 32.8362 12.7851C33.4223 13.357 33.7516 14.1326 33.7516 14.9413C33.7516 15.75 33.4223 16.5256 32.8362 17.0974C32.2501 17.6693 31.4552 17.9905 30.6263 17.9905C29.7974 17.9905 29.0025 17.6693 28.4164 17.0974C27.8303 16.5256 27.5011 15.75 27.5011 14.9413ZM30.6263 30.1875C31.8604 30.1871 33.0601 29.7908 34.0406 29.0596C35.0211 28.3284 35.728 27.3029 36.0523 26.1412C36.3766 24.9794 36.3003 23.7458 35.8353 22.6305C35.3702 21.5152 34.5422 20.58 33.4787 19.9691C32.4152 19.3582 31.1754 19.1055 29.9502 19.2498C28.725 19.3941 27.5824 19.9276 26.6986 20.7679C25.8147 21.6082 25.2386 22.7088 25.059 23.9001C24.8794 25.0913 25.1063 26.3072 25.7047 27.3602L25.0246 29.5423C24.9982 29.6286 24.9963 29.7204 25.0189 29.8078C25.0416 29.8951 25.0881 29.9749 25.1534 30.0387C25.2187 30.1024 25.3005 30.1477 25.39 30.1698C25.4796 30.192 25.5736 30.19 25.6622 30.1643L27.8998 29.5008C28.7343 29.9515 29.6725 30.1878 30.6263 30.1875ZM27.5011 23.4792C27.5011 23.3174 27.5669 23.1623 27.6841 23.0479C27.8013 22.9336 27.9603 22.8693 28.1261 22.8693H33.1265C33.2923 22.8693 33.4513 22.9336 33.5685 23.0479C33.6857 23.1623 33.7516 23.3174 33.7516 23.4792C33.7516 23.6409 33.6857 23.796 33.5685 23.9104C33.4513 24.0248 33.2923 24.089 33.1265 24.089H28.1261C27.9603 24.089 27.8013 24.0248 27.6841 23.9104C27.5669 23.796 27.5011 23.6409 27.5011 23.4792ZM28.1261 26.5284C27.9603 26.5284 27.8013 26.4641 27.6841 26.3498C27.5669 26.2354 27.5011 26.0803 27.5011 25.9185C27.5011 25.7568 27.5669 25.6017 27.6841 25.4873C27.8013 25.3729 27.9603 25.3087 28.1261 25.3087H30.6263C30.7921 25.3087 30.9511 25.3729 31.0683 25.4873C31.1855 25.6017 31.2514 25.7568 31.2514 25.9185C31.2514 26.0803 31.1855 26.2354 31.0683 26.3498C30.9511 26.4641 30.7921 26.5284 30.6263 26.5284H28.1261Z" fill="white"/>
</svg>
