<svg width="70" height="90" viewBox="0 0 70 90" fill="none" xmlns="http://www.w3.org/2000/svg">
<g clip-path="url(#clip0_322_1483)">
<path d="M65.5414 71.5751H4.30403C1.93083 71.5751 0 69.8298 0 67.6842V29.5748C0 27.4298 1.93083 25.6843 4.30383 25.6843H65.5414C67.9144 25.6843 69.8448 27.4298 69.8448 29.575V67.6842C69.8448 69.8298 67.9144 71.5751 65.5414 71.5751ZM5.10611 66.9594H64.7393V30.3003H5.10611V66.9594ZM11.6904 51.4872C11.7804 53.3216 14.6181 53.2877 14.7179 51.4872C15.0026 44.1054 26.2337 43.8785 26.6101 51.4872C26.6996 53.31 29.5359 53.2861 29.6374 51.4872C28.7789 39.948 12.0933 40.6067 11.6904 51.4872ZM49.1283 76.285L20.7169 89.9998V76.285L49.1283 89.9998V76.285ZM57.3442 2.25929C55.4231 -0.753423 50.5937 -0.753423 48.6724 2.25929C46.9929 4.89285 48.6267 8.11703 51.631 8.8873L49.3251 20.7719H56.6916L54.3857 8.8873C57.3899 8.11703 59.0236 4.89285 57.3442 2.25929ZM40.2078 51.4872C40.2978 53.3216 43.1354 53.2877 43.2353 51.4872C43.52 44.1054 54.7511 43.8785 55.1275 51.4872C55.217 53.31 58.0533 53.2861 58.1548 51.4872C57.2964 39.948 40.6107 40.6067 40.2078 51.4872Z" fill="#F8F8F8"/>
</g>
<defs>
<clipPath id="clip0_322_1483">
<rect width="70" height="90" fill="white"/>
</clipPath>
</defs>
</svg>
